<svg xmlns="http://www.w3.org/2000/svg" viewBox="0 0 512 512" role="img" aria-label="Contento mark">
  <defs>
    <linearGradient id="c" x1="92" y1="64" x2="420" y2="448" gradientUnits="userSpaceOnUse">
      <stop stop-color="#F3E8FF"/>
      <stop offset=".2" stop-color="#C084FC"/>
      <stop offset=".52" stop-color="#7C3AED"/>
      <stop offset=".82" stop-color="#5B21B6"/>
      <stop offset="1" stop-color="#2E1065"/>
    </linearGradient>
    <linearGradient id="fold" x1="222" y1="142" x2="374" y2="343" gradientUnits="userSpaceOnUse">
      <stop stop-color="#0F0B1A" stop-opacity="0"/>
      <stop offset=".5" stop-color="#1E0648" stop-opacity=".5"/>
      <stop offset="1" stop-color="#0B0317" stop-opacity=".72"/>
    </linearGradient>
  </defs>
  <path d="M269 43c92 0 172 49 216 123l-95 65c-23-43-68-71-121-71-76 0-137 61-137 137s61 137 137 137c53 0 98-29 121-72l95 66c-44 74-124 123-216 123C129 551 15 437 15 297S129 43 269 43Z" fill="url(#c)" transform="translate(6 -41)"/>
  <path d="M378 240 238 380c-18 18-7 49 18 53 54 8 105-17 131-70l94 65c-42 73-120 121-210 123-62 1-120-20-164-58L378 240Z" fill="url(#fold)" transform="translate(6 -41)"/>
  <path d="M342 254c0 45-37 82-82 82s-82-37-82-82 37-82 82-82 82 37 82 82Z" fill="currentColor" opacity=".98"/>
</svg>
