<svg xmlns="http://www.w3.org/2000/svg" viewBox="0 0 920 220" role="img" aria-label="Contento">
  <defs>
    <linearGradient id="logo-bg" x1="22" y1="24" x2="178" y2="190" gradientUnits="userSpaceOnUse">
      <stop stop-color="#a78bfa"/>
      <stop offset=".45" stop-color="#7c3aed"/>
      <stop offset="1" stop-color="#4c1d95"/>
    </linearGradient>
    <linearGradient id="logo-card" x1="65" y1="58" x2="148" y2="159" gradientUnits="userSpaceOnUse">
      <stop stop-color="#fff"/>
      <stop offset="1" stop-color="#ede9fe"/>
    </linearGradient>
  </defs>
  <rect x="22" y="22" width="176" height="176" rx="42" fill="url(#logo-bg)"/>
  <path fill="#fff" fill-opacity=".16" d="M57 65c26-30 71-39 107-21 33 17 50 52 42 88-6 28-25 49-49 59 8-19 6-42-6-59-14-20-41-29-65-20-16 6-28 18-35 33-7-26-5-58 6-80Z"/>
  <path fill="url(#logo-card)" d="M73 70c0-13 11-24 24-24h55c13 0 24 11 24 24v89c0 13-11 24-24 24H97c-13 0-24-11-24-24V70Z"/>
  <path fill="#6d28d9" d="M94 75c0-4 3-7 7-7h40c5 0 9 4 9 9v11h-17v-3c0-2-1-3-3-3h-19c-2 0-3 1-3 3v62c0 2 1 3 3 3h19c2 0 3-1 3-3v-4h17v13c0 5-4 9-9 9h-40c-4 0-7-3-7-7V75Z"/>
  <path fill="#22c55e" d="m131 128 22-23 11 10-32 35-20-20 10-11 9 9Z"/>
  <path fill="#fbbf24" d="m157 55 5 13 14 5-14 5-5 14-5-14-14-5 14-5 5-13Z"/>
  <path fill="#181029" d="M260 75c20-21 55-23 78-6 9 7 16 16 20 27h-35c-3-5-7-9-12-12-11-6-25-4-34 5-13 14-13 42 0 56 9 9 23 11 34 5 5-3 9-7 12-12h35c-4 11-11 21-20 27-23 17-58 15-78-6-22-23-22-61 0-84Z"/>
  <path fill="#181029" d="M397 98c21 0 37 15 37 36s-16 36-37 36-37-15-37-36 16-36 37-36Zm0 24c-8 0-13 5-13 12s5 12 13 12 13-5 13-12-5-12-13-12Z"/>
  <path fill="#181029" d="M446 100h24v8c4-6 11-10 21-10 17 0 28 12 28 31v39h-25v-35c0-8-4-12-11-12-8 0-12 5-12 14v33h-25v-68Z"/>
  <path fill="#181029" d="M539 123h-12v-23h12V81h25v19h20v23h-20v17c0 5 3 7 8 7h12v21h-18c-18 0-27-8-27-26v-19Z"/>
  <path fill="#181029" d="M626 98c21 0 36 14 36 35 0 3 0 6-1 9h-48c2 6 7 10 15 10 6 0 10-2 13-6h19c-5 15-17 24-33 24-23 0-38-15-38-36 0-22 15-36 37-36Zm12 29c-1-7-6-11-13-11s-11 4-13 11h26Z"/>
  <path fill="#181029" d="M674 100h24v8c4-6 11-10 21-10 17 0 28 12 28 31v39h-25v-35c0-8-4-12-11-12-8 0-12 5-12 14v33h-25v-68Z"/>
  <path fill="#181029" d="M765 123h-12v-23h12V81h25v19h20v23h-20v17c0 5 3 7 8 7h12v21h-18c-18 0-27-8-27-26v-19Z"/>
  <path fill="#181029" d="M852 98c21 0 37 15 37 36s-16 36-37 36-37-15-37-36 16-36 37-36Zm0 24c-8 0-13 5-13 12s5 12 13 12 13-5 13-12-5-12-13-12Z"/>
  <path fill="#7c3aed" d="M264 190h298v8H264z"/>
  <path fill="#6b5f80" d="M594 194c0-4 3-7 7-7h153c4 0 7 3 7 7s-3 7-7 7H601c-4 0-7-3-7-7Z"/>
</svg>
