<svg xmlns="http://www.w3.org/2000/svg" viewBox="0 0 180 180" role="img" aria-label="Contento">
  <defs><linearGradient id="g" x1="24" y1="20" x2="156" y2="160" gradientUnits="userSpaceOnUse"><stop stop-color="#C084FC"/><stop offset=".44" stop-color="#7C3AED"/><stop offset="1" stop-color="#3B0FA8"/></linearGradient></defs>
  <rect width="180" height="180" rx="40" fill="url(#g)"/>
  <path d="M95 28c27 0 51 14 64 36l-29 20c-7-13-20-22-36-22-24 0-43 19-43 43s19 43 43 43c16 0 29-9 36-22l29 20c-13 22-37 36-64 36-43 0-78-35-78-78s35-76 78-76Z" fill="#F5E9FF" transform="translate(0 -14)"/>
  <circle cx="95" cy="104" r="23" fill="#0F0B1A"/>
</svg>
