<svg xmlns="http://www.w3.org/2000/svg" viewBox="0 0 512 512" role="img" aria-label="Contento icon">
  <defs><linearGradient id="g" x1="72" y1="64" x2="440" y2="448" gradientUnits="userSpaceOnUse"><stop stop-color="#C084FC"/><stop offset=".42" stop-color="#7C3AED"/><stop offset="1" stop-color="#3B0FA8"/></linearGradient></defs>
  <rect width="512" height="512" rx="112" fill="url(#g)"/>
  <path d="M269 91c75 0 140 40 176 100l-78 54c-19-35-56-58-99-58-62 0-112 50-112 112s50 112 112 112c43 0 80-24 99-59l78 54c-36 61-101 101-176 101-115 0-208-93-208-208S154 91 269 91Z" fill="#F5E9FF"/>
  <path d="M367 245 246 366c-16 16-7 43 16 46 44 6 85-15 106-59l77 53c-35 59-98 99-171 101-51 1-98-17-134-48L367 245Z" fill="#2E1065" opacity=".38"/>
  <circle cx="269" cy="294" r="72" fill="#0F0B1A"/>
</svg>
