<svg xmlns="http://www.w3.org/2000/svg" viewBox="0 0 512 512" role="img" aria-label="Contento mark">
  <defs>
    <linearGradient id="contento-bg" x1="82" y1="67" x2="430" y2="445" gradientUnits="userSpaceOnUse">
      <stop stop-color="#a78bfa"/>
      <stop offset=".42" stop-color="#7c3aed"/>
      <stop offset="1" stop-color="#4c1d95"/>
    </linearGradient>
    <linearGradient id="contento-card" x1="164" y1="139" x2="350" y2="372" gradientUnits="userSpaceOnUse">
      <stop stop-color="#fff"/>
      <stop offset="1" stop-color="#ede9fe"/>
    </linearGradient>
    <filter id="contento-shadow" x="93" y="94" width="326" height="334" color-interpolation-filters="sRGB" filterUnits="userSpaceOnUse">
      <feDropShadow dx="0" dy="24" stdDeviation="22" flood-color="#2e1065" flood-opacity=".34"/>
    </filter>
  </defs>
  <rect width="512" height="512" rx="116" fill="url(#contento-bg)"/>
  <path fill="#fff" fill-opacity=".16" d="M104 124c57-64 153-85 231-46 71 36 108 112 91 190-13 59-54 106-107 128 19-41 15-91-11-128-31-44-89-63-141-44-34 12-61 38-75 71-16-55-11-123 12-171Z"/>
  <g filter="url(#contento-shadow)">
    <path fill="url(#contento-card)" d="M159 160c0-27 22-49 49-49h118c27 0 49 22 49 49v188c0 27-22 49-49 49H208c-27 0-49-22-49-49V160Z"/>
    <path fill="#6d28d9" d="M204 168c0-8 6-14 14-14h85c9 0 16 7 16 16v24h-36v-6c0-4-3-7-7-7h-40c-4 0-7 3-7 7v132c0 4 3 7 7 7h40c4 0 7-3 7-7v-8h36v27c0 9-7 16-16 16h-85c-8 0-14-6-14-14V168Z"/>
    <path fill="#22c55e" d="m282 281 46-49 24 22-69 74-42-42 22-23 19 18Z"/>
    <path fill="#fbbf24" d="m337 129 10 28 30 10-30 11-10 29-11-29-29-11 29-10 11-28Z"/>
  </g>
</svg>
